<svg xmlns="http://www.w3.org/2000/svg" xmlns:xlink="http://www.w3.org/1999/xlink" width="1500" zoomAndPan="magnify" viewBox="0 0 1125 1124.99995" height="1500" preserveAspectRatio="xMidYMid meet" version="1.0"><defs><clipPath id="8aa3b9b5dd"><path d="M 335.613281 80.742188 L 789.386719 80.742188 L 789.386719 1033.816406 L 335.613281 1033.816406 Z M 335.613281 80.742188 " clip-rule="nonzero"></path></clipPath><clipPath id="ead0325bd8"><path d="M 405.136719 80.742188 L 409.59375 81.234375 L 715.40625 80.742188 L 728.769531 82.226562 L 730.253906 82.71875 L 731.738281 82.226562 L 733.71875 83.214844 L 734.707031 83.214844 L 736.6875 84.207031 L 739.65625 85.195312 L 744.109375 86.183594 L 754.5 91.132812 L 763.40625 97.566406 L 772.066406 106.226562 L 778.007812 114.636719 L 783.449219 126.019531 L 787.410156 141.359375 L 788.894531 159.667969 L 789.386719 959.839844 L 787.902344 974.683594 L 785.429688 986.066406 L 776.523438 1003.878906 L 764.398438 1016.992188 L 755.492188 1023.425781 L 745.097656 1028.375 L 734.210938 1031.839844 L 721.839844 1033.816406 L 403.652344 1033.816406 L 392.765625 1032.332031 L 379.902344 1028.375 L 365.550781 1020.457031 L 355.40625 1011.300781 L 352.683594 1008.085938 L 351.941406 1007.34375 L 350.953125 1005.613281 L 349.960938 1004.871094 L 346.003906 998.929688 L 340.066406 985.570312 L 337.097656 974.1875 L 335.613281 959.839844 L 335.613281 154.226562 L 338.582031 134.925781 L 342.046875 124.039062 L 349.960938 109.691406 L 358.621094 100.039062 L 370.5 91.132812 L 385.839844 84.207031 L 386.828125 84.699219 L 391.28125 83.214844 L 392.765625 82.226562 L 394.746094 82.71875 L 396.230469 82.226562 L 403.160156 81.730469 Z M 405.136719 80.742188 L 413.796875 87.667969 L 400.4375 90.144531 L 392.023438 93.113281 L 382.128906 98.0625 L 371.242188 105.976562 L 359.859375 117.855469 L 349.960938 134.183594 L 345.507812 148.535156 L 344.023438 163.378906 L 344.519531 282.640625 L 347.984375 297.484375 L 351.449219 305.898438 L 361.34375 320.742188 L 374.707031 333.113281 L 391.53125 343.011719 L 403.902344 346.96875 L 419.242188 348.949219 L 706.253906 348.949219 L 719.613281 347.464844 L 731.492188 344 L 745.347656 337.074219 L 752.769531 331.628906 L 765.636719 318.761719 L 774.046875 305.898438 L 779.984375 290.0625 L 781.964844 277.691406 L 781.46875 154.472656 L 778.996094 143.09375 L 774.542969 131.710938 L 764.644531 116.863281 L 753.757812 105.484375 L 744.355469 98.554688 L 730.007812 91.628906 L 712.191406 87.667969 L 413.796875 87.667969 Z M 405.136719 80.742188 " clip-rule="nonzero"></path></clipPath><clipPath id="e95554fd68"><path d="M 0.613281 1 L 454.386719 1 L 454.386719 953.816406 L 0.613281 953.816406 Z M 0.613281 1 " clip-rule="nonzero"></path></clipPath><clipPath id="bbc0753f5a"><path d="M 70.136719 0.742188 L 74.59375 1.234375 L 380.40625 0.742188 L 393.769531 2.226562 L 395.253906 2.71875 L 396.738281 2.226562 L 398.71875 3.214844 L 399.707031 3.214844 L 401.6875 4.207031 L 404.65625 5.195312 L 409.109375 6.183594 L 419.5 11.132812 L 428.40625 17.566406 L 437.066406 26.226562 L 443.007812 34.636719 L 448.449219 46.019531 L 452.410156 61.359375 L 453.894531 79.667969 L 454.386719 879.839844 L 452.902344 894.683594 L 450.429688 906.066406 L 441.523438 923.878906 L 429.398438 936.992188 L 420.492188 943.425781 L 410.097656 948.375 L 399.210938 951.839844 L 386.839844 953.816406 L 68.652344 953.816406 L 57.765625 952.332031 L 44.902344 948.375 L 30.550781 940.457031 L 20.40625 931.300781 L 17.683594 928.085938 L 16.941406 927.34375 L 15.953125 925.613281 L 14.960938 924.871094 L 11.003906 918.929688 L 5.066406 905.570312 L 2.097656 894.1875 L 0.613281 879.839844 L 0.613281 74.226562 L 3.582031 54.925781 L 7.046875 44.039062 L 14.960938 29.691406 L 23.621094 20.039062 L 35.5 11.132812 L 50.839844 4.207031 L 51.828125 4.699219 L 56.28125 3.214844 L 57.765625 2.226562 L 59.746094 2.71875 L 61.230469 2.226562 L 68.160156 1.730469 Z M 70.136719 0.742188 L 78.796875 7.667969 L 65.4375 10.144531 L 57.023438 13.113281 L 47.128906 18.0625 L 36.242188 25.976562 L 24.859375 37.855469 L 14.960938 54.183594 L 10.507812 68.535156 L 9.023438 83.378906 L 9.519531 202.640625 L 12.984375 217.484375 L 16.449219 225.898438 L 26.34375 240.742188 L 39.707031 253.113281 L 56.53125 263.011719 L 68.902344 266.96875 L 84.242188 268.949219 L 371.253906 268.949219 L 384.613281 267.464844 L 396.492188 264 L 410.347656 257.074219 L 417.769531 251.628906 L 430.636719 238.761719 L 439.046875 225.898438 L 444.984375 210.0625 L 446.964844 197.691406 L 446.46875 74.472656 L 443.996094 63.09375 L 439.542969 51.710938 L 429.644531 36.863281 L 418.757812 25.484375 L 409.355469 18.554688 L 395.007812 11.628906 L 377.191406 7.667969 L 78.796875 7.667969 Z M 70.136719 0.742188 " clip-rule="nonzero"></path></clipPath><clipPath id="f1eb066c74"><rect x="0" width="455" y="0" height="954"></rect></clipPath></defs><g clip-path="url(#8aa3b9b5dd)"><g clip-path="url(#ead0325bd8)"><g transform="matrix(1, 0, 0, 1, 335, 80)"><g clip-path="url(#f1eb066c74)"><g clip-path="url(#e95554fd68)"><g clip-path="url(#bbc0753f5a)"><g transform="matrix(1.702029, 0, 0, 1.701923, -996.182566, 0.741205)"><image x="0" y="0" width="1438" height="560" preserveAspectRatio="xMidYMid meet"></image></g></g></g></g></g></g></g></svg>