<svg xmlns="http://www.w3.org/2000/svg" xmlns:xlink="http://www.w3.org/1999/xlink" width="293" zoomAndPan="magnify" viewBox="0 0 219.75 465.749986" height="621" preserveAspectRatio="xMidYMid meet" version="1.0"><defs><clipPath id="ad03b321a4"><path d="M 0 0.140625 L 219.5 0.140625 L 219.5 465.359375 L 0 465.359375 Z M 0 0.140625 " clip-rule="nonzero"></path></clipPath><clipPath id="3265ab3c4b"><path d="M 0 0.140625 L 219.339844 0.140625 L 219.339844 465.019531 L 0 465.019531 Z M 0 0.140625 " clip-rule="nonzero"></path></clipPath><clipPath id="b7bec170cd"><path d="M 0 0.140625 L 219.5 0.140625 L 219.5 465.359375 L 0 465.359375 Z M 0 0.140625 " clip-rule="nonzero"></path></clipPath><clipPath id="491eaa2d78"><path d="M 37.941406 3.761719 L 181.980469 3.761719 C 191.464844 5.046875 199.035156 8.800781 205.445312 15.769531 C 211.746094 21.84375 215.140625 30.003906 215.898438 38.851562 L 215.898438 96.054688 C 215.21875 103.6875 212.554688 110.585938 207.808594 116.480469 C 205.714844 118.542969 203.917969 120.675781 201.660156 122.566406 C 195.859375 127.445312 188.757812 130.332031 181.242188 130.90625 C 180.363281 130.976562 179.882812 130.964844 178.773438 131.144531 L 40.777344 131.144531 C 39.917969 131.144531 39.089844 130.945312 38.300781 130.894531 C 28.675781 130.261719 20.289062 125.695312 13.789062 118.695312 C 8.648438 113.160156 5.382812 106.34375 4.453125 98.699219 C 4.285156 97.3125 4.132812 95.8125 4.132812 94.324219 L 4.105469 41.1875 C 4.105469 39.769531 4.253906 38.429688 4.363281 37.03125 C 5.3125 24.863281 13.101562 14.199219 23.425781 8.335938 C 27.996094 5.773438 32.699219 4.40625 37.941406 3.761719 Z M 36.074219 0.140625 C 32.53125 0.582031 29.234375 0.714844 25.890625 1.628906 C 10.734375 5.761719 1.835938 17.207031 0.378906 32.859375 C 0.328125 33.363281 0 34.023438 0 34.71875 L 0 429.164062 C 0.449219 432.667969 0.519531 436.097656 1.519531 439.375 C 2.925781 444.023438 2.976562 444.484375 5.371094 448.808594 C 7.699219 452.992188 11.910156 457.097656 15.964844 459.613281 C 21.265625 462.890625 26.628906 464.367188 32.910156 465.0625 L 187.0625 465.0625 C 196.828125 463.894531 204.15625 460.839844 210.816406 453.648438 C 214.730469 449.421875 217.746094 443.148438 218.5625 437.375 C 218.714844 436.316406 219.503906 429.476562 219.503906 428.773438 L 219.503906 38.914062 C 219.191406 37.375 219.28125 35.964844 219.144531 34.476562 C 218.894531 31.691406 218.632812 29.007812 217.914062 26.320312 C 216.847656 22.316406 215.359375 18.695312 213.113281 15.226562 C 212.042969 13.578125 210.796875 12.1875 209.40625 10.78125 C 206.652344 7.953125 203.558594 5.582031 199.941406 3.960938 C 195.28125 1.859375 188.757812 0.179688 183.667969 0.179688 Z M 36.074219 0.140625 " clip-rule="nonzero"></path></clipPath><clipPath id="0eebe0c17f"><path d="M 0 0.140625 L 219.5 0.140625 L 219.5 464.863281 L 0 464.863281 Z M 0 0.140625 " clip-rule="nonzero"></path></clipPath><clipPath id="eeea4139b6"><path d="M 37.941406 3.761719 L 181.980469 3.761719 C 191.464844 5.046875 199.035156 8.800781 205.445312 15.769531 C 211.746094 21.84375 215.140625 30.003906 215.898438 38.851562 L 215.898438 96.054688 C 215.21875 103.6875 212.554688 110.585938 207.808594 116.480469 C 205.714844 118.542969 203.917969 120.675781 201.660156 122.566406 C 195.859375 127.445312 188.757812 130.332031 181.242188 130.90625 C 180.363281 130.976562 179.882812 130.964844 178.773438 131.144531 L 40.777344 131.144531 C 39.917969 131.144531 39.089844 130.945312 38.300781 130.894531 C 28.675781 130.261719 20.289062 125.695312 13.789062 118.695312 C 8.648438 113.160156 5.382812 106.34375 4.453125 98.699219 C 4.285156 97.3125 4.132812 95.8125 4.132812 94.324219 L 4.105469 41.1875 C 4.105469 39.769531 4.253906 38.429688 4.363281 37.03125 C 5.3125 24.863281 13.101562 14.199219 23.425781 8.335938 C 27.996094 5.773438 32.699219 4.40625 37.941406 3.761719 Z M 36.074219 0.140625 C 32.53125 0.582031 29.234375 0.714844 25.890625 1.628906 C 10.734375 5.761719 1.835938 17.207031 0.378906 32.859375 C 0.328125 33.363281 0 34.023438 0 34.71875 L 0 429.164062 C 0.449219 432.667969 0.519531 436.097656 1.519531 439.375 C 2.925781 444.023438 2.976562 444.484375 5.371094 448.808594 C 7.699219 452.992188 11.910156 457.097656 15.964844 459.613281 C 21.265625 462.890625 26.628906 464.367188 32.910156 465.0625 L 187.0625 465.0625 C 196.828125 463.894531 204.15625 460.839844 210.816406 453.648438 C 214.730469 449.421875 217.746094 443.148438 218.5625 437.375 C 218.714844 436.316406 219.503906 429.476562 219.503906 428.773438 L 219.503906 38.914062 C 219.191406 37.375 219.28125 35.964844 219.144531 34.476562 C 218.894531 31.691406 218.632812 29.007812 217.914062 26.320312 C 216.847656 22.316406 215.359375 18.695312 213.113281 15.226562 C 212.042969 13.578125 210.796875 12.1875 209.40625 10.78125 C 206.652344 7.953125 203.558594 5.582031 199.941406 3.960938 C 195.28125 1.859375 188.757812 0.179688 183.667969 0.179688 Z M 36.074219 0.140625 " clip-rule="nonzero"></path></clipPath><clipPath id="e22b9085d4"><rect x="0" width="220" y="0" height="466"></rect></clipPath><clipPath id="e3d12c6933"><rect x="0" width="220" y="0" height="466"></rect></clipPath></defs><g clip-path="url(#ad03b321a4)"><path fill="#ffffff" d="M 0 0.140625 L 219.5 0.140625 L 219.5 465.359375 L 0 465.359375 Z M 0 0.140625 " fill-opacity="1" fill-rule="nonzero"></path><g transform="matrix(1, 0, 0, 1, 0, 0.000000000000047157)"><g clip-path="url(#e3d12c6933)"><g clip-path="url(#3265ab3c4b)"><path fill="#ffffff" d="M 0 0.140625 L 219.339844 0.140625 L 219.339844 465.019531 L 0 465.019531 Z M 0 0.140625 " fill-opacity="1" fill-rule="nonzero"></path></g><g clip-path="url(#b7bec170cd)"><g clip-path="url(#491eaa2d78)"><g transform="matrix(1, 0, 0, 1, 0, 0.000000000000047157)"><g clip-path="url(#e22b9085d4)"><g clip-path="url(#0eebe0c17f)"><g clip-path="url(#eeea4139b6)"><g transform="matrix(0.829995, 0, 0, 0.829863, -487.177147, 0.139766)"><image x="0" y="0" width="1438" height="560" preserveAspectRatio="xMidYMid meet"></image></g></g></g></g></g></g></g></g></g></g></svg>